<svg width="20" height="18" viewBox="0 0 20 18" fill="none" xmlns="http://www.w3.org/2000/svg">
<path d="M0.685341 6.10174C0.706241 6.16127 0.743605 6.21254 0.79244 6.24872C0.841275 6.28489 0.899254 6.30424 0.95863 6.30417H1.44279V12.6739C1.44279 12.7567 1.47352 12.8362 1.52822 12.8948C1.58291 12.9534 1.6571 12.9863 1.73445 12.9863C10.6322 12.9863 1.13071 12.9875 8.83062 12.9863V17.6875C8.83062 17.7704 8.86135 17.8498 8.91605 17.9084C8.97075 17.967 9.04493 17.9999 9.12229 17.9999H18.2703C18.3477 17.9999 18.4218 17.967 18.4765 17.9084C18.5312 17.8498 18.562 17.7704 18.562 17.6875V11.3169H19.0418C19.1011 11.3169 19.1591 11.2975 19.2078 11.2612C19.2566 11.225 19.294 11.1738 19.3148 11.1142C19.3357 11.0547 19.3391 10.9898 19.3246 10.9282C19.3101 10.8665 19.2784 10.8111 19.2337 10.7692L17.1996 8.863V6.11549C17.1996 6.03263 17.1689 5.95318 17.1142 5.89459C17.0595 5.83601 16.9853 5.80309 16.9079 5.80309H15.6614C15.584 5.80309 15.5098 5.83601 15.4551 5.89459C15.4004 5.95318 15.3697 6.03263 15.3697 6.11549V7.14639L13.8895 5.75655C13.8364 5.70672 13.7681 5.67925 13.6975 5.67925C13.6268 5.67925 13.5586 5.70672 13.5054 5.75655L11.1741 7.94018V6.30386H11.6528C11.7121 6.30386 11.7701 6.28446 11.8188 6.24826C11.8676 6.21205 11.905 6.16077 11.9258 6.10125C11.9467 6.04173 11.9501 5.97681 11.9356 5.91516C11.9211 5.85351 11.8894 5.79807 11.8447 5.75623L9.81032 3.84969V1.10249C9.81032 1.01964 9.77959 0.940183 9.7249 0.881598C9.6702 0.823012 9.59601 0.790099 9.51866 0.790099H8.27267C8.19532 0.790099 8.12113 0.823012 8.06644 0.881598C8.01174 0.940183 7.98101 1.01964 7.98101 1.10249V2.13402L6.50082 0.743865C6.44765 0.694037 6.3794 0.666573 6.30876 0.666573C6.23811 0.666573 6.16986 0.694037 6.1167 0.743865L0.766715 5.75623C0.721946 5.79805 0.690165 5.85351 0.675623 5.9152C0.661081 5.97689 0.664471 6.04217 0.685341 6.10174ZM7.24164 12.3615H5.37354V10.1132C5.37369 9.84785 5.47216 9.5934 5.64731 9.40574C5.82247 9.21808 6.05999 9.11253 6.30774 9.11229C6.55543 9.11262 6.79288 9.21819 6.96797 9.40585C7.14306 9.5935 7.24149 9.8479 7.24164 10.1132V12.3615ZM12.7622 17.3751V15.1259C12.7622 14.5742 13.1811 14.1253 13.6964 14.1253C14.2118 14.1253 14.6306 14.5742 14.6306 15.1259V17.3751H12.7622ZM17.9784 17.3751H15.214V15.1259C15.214 14.2296 14.5332 13.5005 13.6964 13.5005C12.8597 13.5005 12.1789 14.2296 12.1789 15.1259V17.3751H9.41395V11.3169H17.9784V17.3751ZM13.6973 6.40695L15.4695 8.07076C15.5116 8.1104 15.5635 8.1362 15.619 8.14505C15.6744 8.15391 15.7311 8.14545 15.7822 8.12069C15.8333 8.09594 15.8766 8.05593 15.907 8.00547C15.9374 7.955 15.9536 7.89622 15.9536 7.83615V6.42788H16.6163V9.00513C16.6163 9.04967 16.6251 9.0937 16.6423 9.13427C16.6594 9.17484 16.6845 9.21102 16.7157 9.24037L18.2654 10.6921H9.12404L13.6973 6.40695ZM10.5911 8.4875L8.15542 10.7695C8.11073 10.8114 8.07901 10.8668 8.06452 10.9285C8.05002 10.9901 8.05342 11.055 8.07428 11.1146C8.09514 11.1741 8.13246 11.2254 8.18125 11.2616C8.23004 11.2978 8.28798 11.3172 8.34734 11.3172H8.83062V12.3615H7.82497V10.1132C7.82458 9.68227 7.66463 9.2691 7.38019 8.96433C7.09575 8.65956 6.71007 8.48808 6.30774 8.4875C5.90535 8.48799 5.51959 8.65944 5.23509 8.96422C4.95059 9.269 4.7906 9.68222 4.79021 10.1132V12.3615H2.02612V6.30417H10.5911V8.4875ZM6.30861 1.39365L8.08076 3.05777C8.12299 3.09715 8.17489 3.12272 8.23029 3.13141C8.28569 3.14011 8.34226 3.13158 8.39327 3.10683C8.44427 3.08208 8.48757 3.04216 8.518 2.99182C8.54843 2.94147 8.56471 2.88282 8.56492 2.82285V1.41489H9.22699V3.99183C9.227 4.03639 9.2359 4.08044 9.2531 4.12101C9.27031 4.16158 9.29542 4.19774 9.32674 4.22706L10.8769 5.6797H1.73504L6.30832 1.39396L6.30861 1.39365Z" fill="#335F32"/>
<path d="M0.685341 6.10174C0.706241 6.16127 0.743605 6.21254 0.79244 6.24872C0.841275 6.28489 0.899254 6.30424 0.95863 6.30417H1.44279V12.6739C1.44279 12.7567 1.47352 12.8362 1.52822 12.8948C1.58291 12.9534 1.6571 12.9863 1.73445 12.9863C10.6322 12.9863 1.13071 12.9875 8.83062 12.9863V17.6875C8.83062 17.7704 8.86135 17.8498 8.91605 17.9084C8.97075 17.967 9.04493 17.9999 9.12229 17.9999H18.2703C18.3477 17.9999 18.4218 17.967 18.4765 17.9084C18.5312 17.8498 18.562 17.7704 18.562 17.6875V11.3169H19.0418C19.1011 11.3169 19.1591 11.2975 19.2078 11.2612C19.2566 11.225 19.294 11.1738 19.3148 11.1142C19.3357 11.0547 19.3391 10.9898 19.3246 10.9282C19.3101 10.8665 19.2784 10.8111 19.2337 10.7692L17.1996 8.863V6.11549C17.1996 6.03263 17.1689 5.95318 17.1142 5.89459C17.0595 5.83601 16.9853 5.80309 16.9079 5.80309H15.6614C15.584 5.80309 15.5098 5.83601 15.4551 5.89459C15.4004 5.95318 15.3697 6.03263 15.3697 6.11549V7.14639L13.8895 5.75655C13.8364 5.70672 13.7681 5.67925 13.6975 5.67925C13.6268 5.67925 13.5586 5.70672 13.5054 5.75655L11.1741 7.94018V6.30386H11.6528C11.7121 6.30386 11.7701 6.28446 11.8188 6.24826C11.8676 6.21205 11.905 6.16077 11.9258 6.10125C11.9467 6.04173 11.9501 5.97681 11.9356 5.91516C11.9211 5.85351 11.8894 5.79807 11.8447 5.75623L9.81032 3.84969V1.10249C9.81032 1.01964 9.77959 0.940183 9.7249 0.881598C9.6702 0.823012 9.59601 0.790099 9.51866 0.790099H8.27267C8.19532 0.790099 8.12113 0.823012 8.06644 0.881598C8.01174 0.940183 7.98101 1.01964 7.98101 1.10249V2.13402L6.50082 0.743865C6.44765 0.694037 6.3794 0.666573 6.30876 0.666573C6.23811 0.666573 6.16986 0.694037 6.1167 0.743865L0.766715 5.75623C0.721946 5.79805 0.690165 5.85351 0.675623 5.9152C0.661081 5.97689 0.664471 6.04217 0.685341 6.10174ZM7.24164 12.3615H5.37354V10.1132C5.37369 9.84785 5.47216 9.5934 5.64731 9.40574C5.82247 9.21808 6.05999 9.11253 6.30774 9.11229C6.55543 9.11262 6.79288 9.21819 6.96797 9.40585C7.14306 9.5935 7.24149 9.8479 7.24164 10.1132V12.3615ZM12.7622 17.3751V15.1259C12.7622 14.5742 13.1811 14.1253 13.6964 14.1253C14.2118 14.1253 14.6306 14.5742 14.6306 15.1259V17.3751H12.7622ZM17.9784 17.3751H15.214V15.1259C15.214 14.2296 14.5332 13.5005 13.6964 13.5005C12.8597 13.5005 12.1789 14.2296 12.1789 15.1259V17.3751H9.41395V11.3169H17.9784V17.3751ZM13.6973 6.40695L15.4695 8.07076C15.5116 8.1104 15.5635 8.1362 15.619 8.14505C15.6744 8.15391 15.7311 8.14545 15.7822 8.12069C15.8333 8.09594 15.8766 8.05593 15.907 8.00547C15.9374 7.955 15.9536 7.89622 15.9536 7.83615V6.42788H16.6163V9.00513C16.6163 9.04967 16.6251 9.0937 16.6423 9.13427C16.6594 9.17484 16.6845 9.21102 16.7157 9.24037L18.2654 10.6921H9.12404L13.6973 6.40695ZM10.5911 8.4875L8.15542 10.7695C8.11073 10.8114 8.07901 10.8668 8.06452 10.9285C8.05002 10.9901 8.05342 11.055 8.07428 11.1146C8.09514 11.1741 8.13246 11.2254 8.18125 11.2616C8.23004 11.2978 8.28798 11.3172 8.34734 11.3172H8.83062V12.3615H7.82497V10.1132C7.82458 9.68227 7.66463 9.2691 7.38019 8.96433C7.09575 8.65956 6.71007 8.48808 6.30774 8.4875C5.90535 8.48799 5.51959 8.65944 5.23509 8.96422C4.95059 9.269 4.7906 9.68222 4.79021 10.1132V12.3615H2.02612V6.30417H10.5911V8.4875ZM6.30861 1.39365L8.08076 3.05777C8.12299 3.09715 8.17489 3.12272 8.23029 3.13141C8.28569 3.14011 8.34226 3.13158 8.39327 3.10683C8.44427 3.08208 8.48757 3.04216 8.518 2.99182C8.54843 2.94147 8.56471 2.88282 8.56492 2.82285V1.41489H9.22699V3.99183C9.227 4.03639 9.2359 4.08044 9.2531 4.12101C9.27031 4.16158 9.29542 4.19774 9.32674 4.22706L10.8769 5.6797H1.73504L6.30832 1.39396L6.30861 1.39365Z" fill="black" fill-opacity="0.2"/>
</svg>
