<svg width="14" height="15" viewBox="0 0 14 15" fill="none" xmlns="http://www.w3.org/2000/svg">
<path d="M13.795 6.99195L8.19499 0.769583C8.09709 0.66084 7.97237 0.586789 7.83661 0.556791C7.70084 0.526794 7.56011 0.542196 7.43222 0.601052C7.30433 0.659908 7.19501 0.759574 7.11809 0.887452C7.04118 1.01533 7.0001 1.16568 7.00007 1.31949V4.07677C5.08786 4.27339 3.31049 5.2558 2.0158 6.83175C0.721115 8.40769 0.00229024 10.4637 0 12.5975V13.7642C0.0001105 13.9257 0.0454373 14.0831 0.129693 14.2146C0.213949 14.3462 0.332958 14.4453 0.470213 14.4983C0.607468 14.5513 0.756165 14.5556 0.89568 14.5104C1.0352 14.4653 1.15861 14.373 1.24881 14.2465C1.93461 13.3403 2.77606 12.5951 3.724 12.0543C4.67194 11.5136 5.70737 11.1882 6.76977 11.0972C6.80477 11.0925 6.89227 11.0847 7.00007 11.0769V13.7642C7.0001 13.918 7.04118 14.0684 7.11809 14.1963C7.19501 14.3241 7.30433 14.4238 7.43222 14.4827C7.56011 14.5415 7.70084 14.5569 7.83661 14.5269C7.97237 14.4969 8.09709 14.4229 8.19499 14.3141L13.795 8.09176C13.9263 7.9459 14 7.7481 14 7.54186C14 7.33561 13.9263 7.13781 13.795 6.99195ZM8.40009 11.8866V10.2641C8.40009 10.0579 8.32634 9.86002 8.19506 9.71416C8.06379 9.56829 7.88574 9.48635 7.70008 9.48635C7.52158 9.48635 6.79287 9.52524 6.60667 9.55246C4.72005 9.74561 2.92422 10.542 1.43642 11.8454C1.60529 10.1299 2.3377 8.54393 3.49343 7.39109C4.64915 6.23825 6.14696 5.59958 7.70008 5.59736C7.88574 5.59736 8.06379 5.51542 8.19506 5.36955C8.32634 5.22369 8.40009 5.02585 8.40009 4.81957V3.19709L12.3103 7.54186L8.40009 11.8866Z" fill="black"/>
</svg>
